<mxfile host="app.diagrams.net" modified="2021-08-08T09:38:44.822Z" agent="5.0 (Macintosh; Intel Mac OS X 10_14_3) AppleWebKit/537.36 (KHTML, like Gecko) Chrome/92.0.4515.131 Safari/537.36" etag="BwV6BSfHLz6IcLb0SbqW" version="14.9.5" type="github">
  <diagram id="3228e29e-7158-1315-38df-8450db1d8a1d" name="Page-1">
    <mxGraphModel dx="1180" dy="741" grid="0" gridSize="10" guides="1" tooltips="1" connect="1" arrows="1" fold="1" page="1" pageScale="1" pageWidth="1100" pageHeight="650" background="#EFF1F3" math="0" shadow="1">
      <root>
        <mxCell id="0" />
        <mxCell id="1" parent="0" />
        <mxCell id="6Hhxw88YENzdqIspsL2O-30" value="" style="rounded=1;whiteSpace=wrap;html=1;rotation=-15;fillColor=none;dashed=1;strokeWidth=3;" parent="1" vertex="1">
          <mxGeometry x="88.45" y="932.43" width="343.97" height="95.88" as="geometry" />
        </mxCell>
        <mxCell id="rZcqujrUEgLIW7w2rmDH-5" value="" style="shape=flexArrow;endArrow=classic;html=1;fontColor=#FFFFFF;gradientColor=none;endWidth=24.381720430107528;endSize=9.583333333333334;width=27.5;strokeColor=none;fillColor=#4A919B;" parent="1" edge="1">
          <mxGeometry width="50" height="50" relative="1" as="geometry">
            <mxPoint x="308.87" y="985" as="sourcePoint" />
            <mxPoint x="203.91" y="1018" as="targetPoint" />
          </mxGeometry>
        </mxCell>
        <mxCell id="_KJd5dzx4qh3lxpyMWcO-2" value="" style="fontColor=#0066CC;verticalAlign=top;verticalLabelPosition=bottom;labelPosition=center;align=center;html=1;outlineConnect=0;gradientColor=none;gradientDirection=north;strokeWidth=2;shape=mxgraph.networks.pc;fillColor=#67AB9F;fontSize=30;" parent="1" vertex="1">
          <mxGeometry x="73.18" y="724" width="74.65" height="54" as="geometry" />
        </mxCell>
        <mxCell id="T-5VQnCJckOgUX1Wp16H-28" value="客户端" style="text;html=1;strokeColor=none;fillColor=none;align=center;verticalAlign=middle;whiteSpace=wrap;rounded=0;fontSize=22;" parent="1" vertex="1">
          <mxGeometry x="73.18" y="792" width="96" height="20" as="geometry" />
        </mxCell>
        <mxCell id="aH1-eks404bDhsACtXEq-2" value="" style="fontColor=#0066CC;verticalAlign=top;verticalLabelPosition=bottom;labelPosition=center;align=center;html=1;outlineConnect=0;gradientColor=none;gradientDirection=north;strokeWidth=2;shape=mxgraph.networks.server;fillColor=#4A919B;" parent="1" vertex="1">
          <mxGeometry x="382.99999999999994" y="714" width="51.5" height="64" as="geometry" />
        </mxCell>
        <mxCell id="aH1-eks404bDhsACtXEq-3" value="服务端" style="text;html=1;strokeColor=none;fillColor=none;align=center;verticalAlign=middle;whiteSpace=wrap;rounded=0;fontSize=22;" parent="1" vertex="1">
          <mxGeometry x="321.99999999999994" y="792" width="179" height="20" as="geometry" />
        </mxCell>
        <mxCell id="aH1-eks404bDhsACtXEq-4" value="&lt;font style=&quot;font-size: 30px&quot;&gt;TCP三次挥手（延迟确认）&lt;/font&gt;" style="text;html=1;strokeColor=none;fillColor=none;align=center;verticalAlign=middle;whiteSpace=wrap;rounded=0;" parent="1" vertex="1">
          <mxGeometry x="394.99999999999994" y="659" width="395" height="28" as="geometry" />
        </mxCell>
        <mxCell id="aH1-eks404bDhsACtXEq-7" value="" style="endArrow=none;html=1;strokeWidth=5;" parent="1" edge="1">
          <mxGeometry width="50" height="50" relative="1" as="geometry">
            <mxPoint x="122" y="1251" as="sourcePoint" />
            <mxPoint x="121.91" y="855" as="targetPoint" />
          </mxGeometry>
        </mxCell>
        <mxCell id="aH1-eks404bDhsACtXEq-10" value="" style="endArrow=classic;html=1;strokeWidth=5;fontSize=20;" parent="1" edge="1">
          <mxGeometry width="50" height="50" relative="1" as="geometry">
            <mxPoint x="142.41" y="888" as="sourcePoint" />
            <mxPoint x="398.40999999999997" y="903" as="targetPoint" />
          </mxGeometry>
        </mxCell>
        <mxCell id="aH1-eks404bDhsACtXEq-11" value="FIN" style="text;html=1;strokeColor=none;fillColor=none;align=center;verticalAlign=middle;whiteSpace=wrap;rounded=0;fontSize=20;" parent="1" vertex="1">
          <mxGeometry x="212.41" y="861" width="92" height="21" as="geometry" />
        </mxCell>
        <mxCell id="aH1-eks404bDhsACtXEq-12" value="" style="endArrow=none;html=1;strokeWidth=5;startArrow=classic;startFill=1;endFill=0;" parent="1" edge="1">
          <mxGeometry width="50" height="50" relative="1" as="geometry">
            <mxPoint x="133.41" y="993" as="sourcePoint" />
            <mxPoint x="398.40999999999997" y="924" as="targetPoint" />
          </mxGeometry>
        </mxCell>
        <mxCell id="aH1-eks404bDhsACtXEq-13" value="" style="endArrow=classic;html=1;strokeWidth=5;" parent="1" edge="1">
          <mxGeometry width="50" height="50" relative="1" as="geometry">
            <mxPoint x="137" y="1221" as="sourcePoint" />
            <mxPoint x="396.99999999999994" y="1240" as="targetPoint" />
          </mxGeometry>
        </mxCell>
        <mxCell id="aH1-eks404bDhsACtXEq-22" value="ACK" style="text;html=1;strokeColor=none;fillColor=none;align=center;verticalAlign=middle;whiteSpace=wrap;rounded=0;fontSize=20;rotation=-15;" parent="1" vertex="1">
          <mxGeometry x="110" y="932.9200000000001" width="269" height="32" as="geometry" />
        </mxCell>
        <mxCell id="YXoqQ_mGJv7HDvLP6CB5-1" value="" style="endArrow=none;html=1;strokeWidth=5;" parent="1" edge="1">
          <mxGeometry width="50" height="50" relative="1" as="geometry">
            <mxPoint x="407" y="1254" as="sourcePoint" />
            <mxPoint x="407.4100000000001" y="855" as="targetPoint" />
          </mxGeometry>
        </mxCell>
        <mxCell id="CZwPZS3a3ZRwMsVz8uld-1" value="" style="endArrow=none;html=1;strokeWidth=5;startArrow=classic;startFill=1;endFill=0;" parent="1" edge="1">
          <mxGeometry width="50" height="50" relative="1" as="geometry">
            <mxPoint x="133" y="1201" as="sourcePoint" />
            <mxPoint x="397.99999999999994" y="1132" as="targetPoint" />
          </mxGeometry>
        </mxCell>
        <mxCell id="CZwPZS3a3ZRwMsVz8uld-2" value="ACK" style="text;html=1;strokeColor=none;fillColor=none;align=center;verticalAlign=middle;whiteSpace=wrap;rounded=0;dashed=1;fontSize=20;rotation=0;" parent="1" vertex="1">
          <mxGeometry x="208" y="1206" width="132" height="20" as="geometry" />
        </mxCell>
        <mxCell id="CZwPZS3a3ZRwMsVz8uld-3" value="FIN" style="text;html=1;strokeColor=none;fillColor=none;align=center;verticalAlign=middle;whiteSpace=wrap;rounded=0;fontSize=20;rotation=-15;" parent="1" vertex="1">
          <mxGeometry x="130" y="1124" width="269" height="32" as="geometry" />
        </mxCell>
        <mxCell id="rZcqujrUEgLIW7w2rmDH-9" value="&lt;font style=&quot;font-size: 18px&quot;&gt;数据传输&lt;/font&gt;" style="text;html=1;strokeColor=none;fillColor=none;align=center;verticalAlign=middle;whiteSpace=wrap;rounded=0;fontColor=#FFFFFF;rotation=-15;" parent="1" vertex="1">
          <mxGeometry x="209.52" y="990.02" width="102" height="20" as="geometry" />
        </mxCell>
        <mxCell id="6Hhxw88YENzdqIspsL2O-2" value="" style="fontColor=#0066CC;verticalAlign=top;verticalLabelPosition=bottom;labelPosition=center;align=center;html=1;outlineConnect=0;gradientColor=none;gradientDirection=north;strokeWidth=2;shape=mxgraph.networks.pc;fillColor=#67AB9F;fontSize=30;" parent="1" vertex="1">
          <mxGeometry x="708.5899999999999" y="730" width="74.65" height="54" as="geometry" />
        </mxCell>
        <mxCell id="6Hhxw88YENzdqIspsL2O-3" value="客户端" style="text;html=1;strokeColor=none;fillColor=none;align=center;verticalAlign=middle;whiteSpace=wrap;rounded=0;fontSize=22;" parent="1" vertex="1">
          <mxGeometry x="656.41" y="798" width="179" height="20" as="geometry" />
        </mxCell>
        <mxCell id="6Hhxw88YENzdqIspsL2O-4" value="" style="fontColor=#0066CC;verticalAlign=top;verticalLabelPosition=bottom;labelPosition=center;align=center;html=1;outlineConnect=0;gradientColor=none;gradientDirection=north;strokeWidth=2;shape=mxgraph.networks.server;fillColor=#4A919B;" parent="1" vertex="1">
          <mxGeometry x="1006.0000000000001" y="720" width="51.5" height="64" as="geometry" />
        </mxCell>
        <mxCell id="6Hhxw88YENzdqIspsL2O-5" value="服务端" style="text;html=1;strokeColor=none;fillColor=none;align=center;verticalAlign=middle;whiteSpace=wrap;rounded=0;fontSize=22;" parent="1" vertex="1">
          <mxGeometry x="987.37" y="798" width="88.75" height="20" as="geometry" />
        </mxCell>
        <mxCell id="6Hhxw88YENzdqIspsL2O-6" value="" style="endArrow=none;html=1;strokeWidth=5;" parent="1" edge="1">
          <mxGeometry width="50" height="50" relative="1" as="geometry">
            <mxPoint x="744.91" y="1088" as="sourcePoint" />
            <mxPoint x="744.91" y="861" as="targetPoint" />
          </mxGeometry>
        </mxCell>
        <mxCell id="6Hhxw88YENzdqIspsL2O-7" value="" style="endArrow=classic;html=1;strokeWidth=5;fontSize=20;" parent="1" edge="1">
          <mxGeometry width="50" height="50" relative="1" as="geometry">
            <mxPoint x="765.41" y="894" as="sourcePoint" />
            <mxPoint x="1021.41" y="909" as="targetPoint" />
          </mxGeometry>
        </mxCell>
        <mxCell id="6Hhxw88YENzdqIspsL2O-8" value="FIN" style="text;html=1;strokeColor=none;fillColor=none;align=center;verticalAlign=middle;whiteSpace=wrap;rounded=0;fontSize=20;" parent="1" vertex="1">
          <mxGeometry x="835.41" y="867" width="92" height="21" as="geometry" />
        </mxCell>
        <mxCell id="6Hhxw88YENzdqIspsL2O-9" value="" style="endArrow=none;html=1;strokeWidth=5;startArrow=classic;startFill=1;endFill=0;" parent="1" edge="1">
          <mxGeometry width="50" height="50" relative="1" as="geometry">
            <mxPoint x="756.41" y="992" as="sourcePoint" />
            <mxPoint x="1021.41" y="923" as="targetPoint" />
          </mxGeometry>
        </mxCell>
        <mxCell id="6Hhxw88YENzdqIspsL2O-10" value="" style="endArrow=classic;html=1;strokeWidth=5;" parent="1" edge="1">
          <mxGeometry width="50" height="50" relative="1" as="geometry">
            <mxPoint x="761.41" y="1031" as="sourcePoint" />
            <mxPoint x="1021.41" y="1050" as="targetPoint" />
          </mxGeometry>
        </mxCell>
        <mxCell id="6Hhxw88YENzdqIspsL2O-16" value="FIN+ACK+ &lt;font color=&quot;#4a919b&quot;&gt;数据&lt;/font&gt;" style="text;html=1;strokeColor=none;fillColor=none;align=center;verticalAlign=middle;whiteSpace=wrap;rounded=0;fontSize=20;rotation=-15;" parent="1" vertex="1">
          <mxGeometry x="733" y="931.9200000000001" width="269" height="32" as="geometry" />
        </mxCell>
        <mxCell id="6Hhxw88YENzdqIspsL2O-17" value="" style="endArrow=none;html=1;strokeWidth=5;" parent="1" edge="1">
          <mxGeometry width="50" height="50" relative="1" as="geometry">
            <mxPoint x="1030.91" y="1091" as="sourcePoint" />
            <mxPoint x="1030.41" y="861" as="targetPoint" />
          </mxGeometry>
        </mxCell>
        <mxCell id="6Hhxw88YENzdqIspsL2O-19" value="ACK" style="text;html=1;strokeColor=none;fillColor=none;align=center;verticalAlign=middle;whiteSpace=wrap;rounded=0;dashed=1;fontSize=20;rotation=0;" parent="1" vertex="1">
          <mxGeometry x="832.41" y="1016" width="132" height="20" as="geometry" />
        </mxCell>
        <mxCell id="6Hhxw88YENzdqIspsL2O-31" value="" style="shape=flexArrow;endArrow=classic;html=1;strokeColor=none;width=22.285714285714285;endSize=9.142857142857142;fillColor=#535E80;" parent="1" edge="1">
          <mxGeometry width="50" height="50" relative="1" as="geometry">
            <mxPoint x="538.91" y="982" as="sourcePoint" />
            <mxPoint x="632.91" y="982" as="targetPoint" />
          </mxGeometry>
        </mxCell>
        <mxCell id="7RbmooqWkcPqTW2N83db-1" value="" style="shape=flexArrow;endArrow=classic;html=1;strokeColor=none;fillColor=#FDD276;width=18.285714285714285;endSize=6.857142857142857;" edge="1" parent="1">
          <mxGeometry width="50" height="50" relative="1" as="geometry">
            <mxPoint x="263.90999999999997" y="1058" as="sourcePoint" />
            <mxPoint x="263.90999999999997" y="1114" as="targetPoint" />
          </mxGeometry>
        </mxCell>
        <mxCell id="7RbmooqWkcPqTW2N83db-2" value="&lt;font style=&quot;font-size: 18px&quot;&gt;延迟合并到第三次挥手&lt;/font&gt;" style="text;html=1;strokeColor=none;fillColor=none;align=center;verticalAlign=middle;whiteSpace=wrap;rounded=0;" vertex="1" parent="1">
          <mxGeometry x="289" y="1068" width="106" height="20" as="geometry" />
        </mxCell>
      </root>
    </mxGraphModel>
  </diagram>
</mxfile>
